<svg xmlns="http://www.w3.org/2000/svg" xmlns:xlink="http://www.w3.org/1999/xlink" width="500" zoomAndPan="magnify" viewBox="0 0 375 374.999991" height="500" preserveAspectRatio="xMidYMid meet" version="1.0"><defs><g/><clipPath id="02b725b9e1"><path d="M 202 37.5 L 282 37.5 L 282 185 L 202 185 Z M 202 37.5 " clip-rule="nonzero"/></clipPath><clipPath id="520a547384"><path d="M 93 37.5 L 173 37.5 L 173 185 L 93 185 Z M 93 37.5 " clip-rule="nonzero"/></clipPath><clipPath id="13ce722f4f"><path d="M 34.765625 81 L 340.015625 81 L 340.015625 283.5 L 34.765625 283.5 Z M 34.765625 81 " clip-rule="nonzero"/></clipPath><clipPath id="c6b372ab56"><rect x="0" width="367" y="0" height="55"/></clipPath></defs><g clip-path="url(#02b725b9e1)"><path fill="#f6ce17" d="M 205.035156 123.882812 L 202.863281 125.5 L 205.328125 126.621094 C 210.046875 128.769531 214.300781 131.71875 217.976562 135.390625 C 226.113281 143.539062 230.59375 154.363281 230.59375 165.867188 L 230.59375 184.613281 L 280.84375 117.882812 L 281.53125 116.976562 C 279.578125 113.410156 277.109375 110.113281 274.160156 107.164062 C 271.402344 104.40625 268.269531 102.035156 264.890625 100.125 C 264.164062 99.714844 263.425781 99.320312 262.671875 98.957031 C 261.828125 98.535156 260.96875 98.148438 260.09375 97.789062 C 258.824219 97.261719 257.539062 96.796875 256.222656 96.402344 L 252.207031 95.179688 L 256.011719 93.414062 C 261.710938 90.769531 266.296875 86.394531 269.261719 81.097656 C 269.476562 80.714844 269.683594 80.328125 269.878906 79.933594 C 270.078125 79.546875 270.261719 79.15625 270.433594 78.765625 C 272.09375 75.066406 272.996094 71.007812 272.996094 66.820312 C 272.996094 50.652344 259.847656 37.503906 243.683594 37.503906 C 227.519531 37.503906 214.367188 50.652344 214.367188 66.820312 C 214.367188 71.90625 215.699219 76.808594 218.105469 81.097656 C 221.070312 86.394531 225.652344 90.769531 231.351562 93.414062 L 235.15625 95.179688 L 231.140625 96.402344 C 229.820312 96.804688 228.53125 97.265625 227.269531 97.789062 C 223.390625 99.386719 219.789062 101.53125 216.574219 104.132812 L 216.574219 104.136719 C 215.585938 111.996094 211.503906 119.042969 205.035156 123.882812 " fill-opacity="1" fill-rule="nonzero"/></g><g clip-path="url(#520a547384)"><path fill="#7758f6" d="M 169.667969 126.621094 L 172.125 125.5 L 169.960938 123.882812 C 163.492188 119.046875 159.402344 111.996094 158.417969 104.136719 C 155.175781 101.519531 151.570312 99.375 147.734375 97.789062 C 146.464844 97.261719 145.167969 96.796875 143.847656 96.398438 L 139.835938 95.179688 L 143.640625 93.414062 C 149.339844 90.769531 153.925781 86.394531 156.890625 81.097656 C 159.289062 76.808594 160.625 71.90625 160.625 66.820312 C 160.625 50.652344 147.476562 37.503906 131.3125 37.503906 C 115.148438 37.503906 101.992188 50.652344 101.992188 66.820312 C 101.992188 71 102.898438 75.066406 104.5625 78.765625 C 104.734375 79.15625 104.921875 79.546875 105.117188 79.933594 C 105.3125 80.328125 105.519531 80.714844 105.730469 81.097656 C 108.699219 86.394531 113.28125 90.769531 118.980469 93.414062 L 122.785156 95.179688 L 118.769531 96.398438 C 117.457031 96.796875 116.160156 97.261719 114.894531 97.789062 C 114.394531 97.992188 113.894531 98.210938 113.40625 98.441406 C 113.242188 98.511719 113.085938 98.585938 112.921875 98.664062 C 112.71875 98.761719 112.519531 98.859375 112.320312 98.957031 C 111.578125 99.324219 110.84375 99.714844 110.125 100.125 C 104.980469 103.03125 100.425781 107.003906 96.855469 111.746094 C 95.589844 113.425781 94.460938 115.175781 93.464844 116.988281 L 94.148438 117.894531 L 144.394531 184.621094 L 144.394531 165.867188 C 144.394531 149.019531 154.316406 133.609375 169.667969 126.621094 " fill-opacity="1" fill-rule="nonzero"/></g><path fill="#fc486b" d="M 217.976562 135.390625 C 214.300781 131.71875 210.046875 128.769531 205.328125 126.621094 L 202.863281 125.5 L 205.035156 123.882812 C 211.503906 119.042969 215.585938 111.996094 216.574219 104.136719 L 216.574219 104.132812 C 216.628906 103.703125 216.675781 103.269531 216.703125 102.835938 C 216.746094 102.429688 216.769531 102.019531 216.78125 101.609375 C 216.804688 101.203125 216.8125 100.796875 216.8125 100.390625 C 216.8125 99.511719 216.773438 98.644531 216.695312 97.789062 C 216.132812 91.425781 213.535156 85.644531 209.554688 81.097656 C 204.175781 74.957031 196.28125 71.070312 187.496094 71.070312 C 178.714844 71.070312 170.820312 74.957031 165.441406 81.097656 C 161.457031 85.644531 158.855469 91.425781 158.296875 97.789062 C 158.21875 98.644531 158.179688 99.511719 158.179688 100.390625 C 158.179688 100.796875 158.1875 101.203125 158.207031 101.609375 L 158.207031 101.613281 C 158.222656 102.023438 158.246094 102.433594 158.285156 102.839844 L 158.285156 102.84375 C 158.316406 103.277344 158.363281 103.707031 158.417969 104.136719 C 159.402344 111.996094 163.492188 119.046875 169.960938 123.882812 L 172.125 125.5 L 169.667969 126.621094 C 154.316406 133.609375 144.394531 149.019531 144.394531 165.867188 L 144.394531 184.621094 L 145.328125 185.859375 L 146.257812 187.09375 L 146.261719 187.097656 L 171.871094 221.105469 L 187.492188 241.855469 L 203.117188 221.105469 L 228.726562 187.09375 L 228.734375 187.089844 L 229.664062 185.855469 L 230.59375 184.613281 L 230.59375 165.867188 C 230.59375 154.363281 226.113281 143.539062 217.976562 135.390625 " fill-opacity="1" fill-rule="nonzero"/><g clip-path="url(#13ce722f4f)"><path fill="#03ccac" d="M 340.121094 81.097656 L 187.496094 283.777344 L 34.875 81.097656 L 87.816406 81.097656 L 105.402344 98.679688 L 70.140625 98.679688 L 187.496094 254.535156 L 304.859375 98.679688 L 269.59375 98.679688 L 287.179688 81.097656 L 340.121094 81.097656 " fill-opacity="1" fill-rule="nonzero"/></g><g transform="matrix(1, 0, 0, 1, 8, 320)"><g clip-path="url(#c6b372ab56)"><g fill="#494949" fill-opacity="1"><g transform="translate(2.102335, 41.529536)"><g><path d="M 21.203125 0.453125 C 14.691406 0.453125 9.898438 -0.882812 6.828125 -3.5625 C 3.753906 -6.25 2.21875 -10.351562 2.21875 -15.875 L 9.359375 -15.875 C 9.359375 -14.695312 9.484375 -13.503906 9.734375 -12.296875 C 9.992188 -11.085938 10.515625 -9.972656 11.296875 -8.953125 C 12.085938 -7.929688 13.273438 -7.109375 14.859375 -6.484375 C 16.441406 -5.867188 18.554688 -5.5625 21.203125 -5.5625 C 23.859375 -5.5625 25.976562 -5.878906 27.5625 -6.515625 C 29.144531 -7.148438 30.328125 -7.96875 31.109375 -8.96875 C 31.890625 -9.976562 32.410156 -11.085938 32.671875 -12.296875 C 32.929688 -13.503906 33.0625 -14.695312 33.0625 -15.875 L 33.0625 -25.640625 L 16.734375 -25.640625 L 16.734375 -31.65625 L 40.203125 -31.65625 L 40.203125 -15.875 C 40.203125 -10.382812 38.65625 -6.289062 35.5625 -3.59375 C 32.46875 -0.894531 27.679688 0.453125 21.203125 0.453125 Z M 21.203125 0.453125 "/></g></g></g><g fill="#494949" fill-opacity="1"><g transform="translate(57.036369, 41.529536)"><g><path d="M 2.21875 0 L 2.21875 -5.515625 L 9.140625 -5.515625 L 9.140625 0 Z M 2.21875 0 "/></g></g></g><g fill="#494949" fill-opacity="1"><g transform="translate(80.912866, 41.529536)"><g><path d="M 2.21875 0 L 2.21875 -31.65625 L 9.359375 -31.65625 L 9.359375 0 Z M 2.21875 0 "/></g></g></g><g fill="#494949" fill-opacity="1"><g transform="translate(105.015399, 41.529536)"><g><path d="M 2.21875 0 L 2.21875 -5.515625 L 9.140625 -5.515625 L 9.140625 0 Z M 2.21875 0 "/></g></g></g><g fill="#494949" fill-opacity="1"><g transform="translate(128.891895, 41.529536)"><g><path d="M 22.65625 0.453125 C 18.34375 0.453125 14.617188 0.144531 11.484375 -0.46875 C 8.347656 -1.09375 5.941406 -2.222656 4.265625 -3.859375 C 2.597656 -5.503906 1.765625 -7.835938 1.765625 -10.859375 L 8.90625 -10.859375 C 8.90625 -9.585938 9.316406 -8.535156 10.140625 -7.703125 C 10.972656 -6.878906 12.421875 -6.269531 14.484375 -5.875 C 16.554688 -5.488281 19.429688 -5.296875 23.109375 -5.296875 C 26.085938 -5.296875 28.441406 -5.429688 30.171875 -5.703125 C 31.910156 -5.972656 33.15625 -6.394531 33.90625 -6.96875 C 34.664062 -7.539062 35.046875 -8.289062 35.046875 -9.21875 C 35.046875 -9.976562 34.878906 -10.585938 34.546875 -11.046875 C 34.210938 -11.515625 33.578125 -11.882812 32.640625 -12.15625 C 31.710938 -12.4375 30.394531 -12.65625 28.6875 -12.8125 C 26.988281 -12.976562 24.75 -13.140625 21.96875 -13.296875 C 17.445312 -13.535156 13.785156 -13.972656 10.984375 -14.609375 C 8.179688 -15.242188 6.128906 -16.238281 4.828125 -17.59375 C 3.535156 -18.945312 2.890625 -20.800781 2.890625 -23.15625 C 2.890625 -25.476562 3.648438 -27.285156 5.171875 -28.578125 C 6.703125 -29.867188 8.867188 -30.78125 11.671875 -31.3125 C 14.472656 -31.84375 17.816406 -32.109375 21.703125 -32.109375 C 25.648438 -32.109375 29.054688 -31.753906 31.921875 -31.046875 C 34.785156 -30.335938 36.984375 -29.191406 38.515625 -27.609375 C 40.054688 -26.023438 40.828125 -23.9375 40.828125 -21.34375 L 33.6875 -21.34375 C 33.6875 -22.664062 33.25 -23.6875 32.375 -24.40625 C 31.5 -25.132812 30.117188 -25.640625 28.234375 -25.921875 C 26.347656 -26.210938 23.867188 -26.359375 20.796875 -26.359375 C 17.929688 -26.359375 15.710938 -26.242188 14.140625 -26.015625 C 12.578125 -25.796875 11.5 -25.421875 10.90625 -24.890625 C 10.320312 -24.367188 10.03125 -23.671875 10.03125 -22.796875 C 10.03125 -22.097656 10.195312 -21.519531 10.53125 -21.0625 C 10.863281 -20.613281 11.457031 -20.253906 12.3125 -19.984375 C 13.175781 -19.710938 14.390625 -19.484375 15.953125 -19.296875 C 17.523438 -19.117188 19.53125 -18.957031 21.96875 -18.8125 C 25.101562 -18.632812 27.914062 -18.414062 30.40625 -18.15625 C 32.894531 -17.894531 35.015625 -17.460938 36.765625 -16.859375 C 38.515625 -16.265625 39.851562 -15.382812 40.78125 -14.21875 C 41.71875 -13.0625 42.1875 -11.488281 42.1875 -9.5 C 42.1875 -7.382812 41.703125 -5.671875 40.734375 -4.359375 C 39.773438 -3.046875 38.421875 -2.039062 36.671875 -1.34375 C 34.921875 -0.65625 32.851562 -0.1875 30.46875 0.0625 C 28.09375 0.320312 25.488281 0.453125 22.65625 0.453125 Z M 22.65625 0.453125 "/></g></g></g><g fill="#494949" fill-opacity="1"><g transform="translate(185.362985, 41.529536)"><g><path d="M 2.21875 0 L 2.21875 -5.515625 L 9.140625 -5.515625 L 9.140625 0 Z M 2.21875 0 "/></g></g></g><g fill="#494949" fill-opacity="1"><g transform="translate(209.239481, 41.529536)"><g><path d="M 1.765625 0 L 18.984375 -31.65625 L 28.21875 -31.65625 L 45.4375 0 L 37.53125 0 L 33.6875 -7.015625 L 13.515625 -7.015625 L 9.671875 0 Z M 16.28125 -12.53125 L 30.921875 -12.53125 L 23.609375 -25.8125 Z M 16.28125 -12.53125 "/></g></g></g><g fill="#494949" fill-opacity="1"><g transform="translate(268.965509, 41.529536)"><g><path d="M 2.21875 0 L 2.21875 -5.515625 L 9.140625 -5.515625 L 9.140625 0 Z M 2.21875 0 "/></g></g></g><g fill="#494949" fill-opacity="1"><g transform="translate(292.842006, 41.529536)"><g><path d="M 2.21875 0 L 2.21875 -6.015625 L 27.625 -25.640625 L 2.21875 -25.640625 L 2.21875 -31.65625 L 37.9375 -31.65625 L 37.9375 -25.640625 L 12.53125 -6.015625 L 37.9375 -6.015625 L 37.9375 0 Z M 2.21875 0 "/></g></g></g><g fill="#494949" fill-opacity="1"><g transform="translate(345.515667, 41.529536)"><g><path d="M 2.21875 0 L 2.21875 -5.515625 L 9.140625 -5.515625 L 9.140625 0 Z M 2.21875 0 "/></g></g></g></g></g></svg>