<svg xmlns="http://www.w3.org/2000/svg" xmlns:xlink="http://www.w3.org/1999/xlink" width="500" zoomAndPan="magnify" viewBox="0 0 375 299.999988" height="400" preserveAspectRatio="xMidYMid meet" version="1.0"><defs><g/><clipPath id="62ae3e39cd"><path d="M 193 6.066406 L 270 6.066406 L 270 155 L 193 155 Z M 193 6.066406 " clip-rule="nonzero"/></clipPath><clipPath id="0b279f786c"><path d="M 105.171875 6.066406 L 182 6.066406 L 182 155 L 105.171875 155 Z M 105.171875 6.066406 " clip-rule="nonzero"/></clipPath><clipPath id="8b6c4df45e"><path d="M 175 152 L 200 152 L 200 184.496094 L 175 184.496094 Z M 175 152 " clip-rule="nonzero"/></clipPath></defs><g clip-path="url(#62ae3e39cd)"><path fill="#82a7c9" d="M 224.347656 39.203125 C 224.992188 39.109375 225.644531 38.957031 226.191406 38.773438 C 228.003906 38.171875 229.472656 37.089844 230.207031 35.277344 C 231.257812 32.667969 231.566406 30.171875 232.59375 28.207031 C 229.882812 28.535156 227.269531 29.488281 225.6875 31.632812 C 224.097656 33.785156 223.949219 36.605469 224.347656 39.203125 M 215.253906 60.230469 C 211.050781 60.226562 206.265625 61.125 203.59375 64.503906 C 201.851562 66.714844 201.394531 69.511719 201.589844 72.296875 C 202.707031 71.363281 204.074219 70.757812 205.414062 70.207031 C 207.363281 69.410156 209.246094 68.6875 211.121094 67.707031 C 213.296875 66.566406 214.617188 64.78125 215.078125 62.378906 C 215.195312 61.75 215.261719 60.976562 215.253906 60.230469 Z M 259.640625 92.132812 C 257.476562 92.917969 255.015625 94.34375 253.617188 95.917969 C 252.320312 97.386719 251.796875 99.011719 252.246094 100.960938 C 252.871094 103.632812 254.097656 105.90625 255.394531 108.292969 C 256.433594 110.214844 257.621094 112.378906 257.699219 114.625 C 261.503906 112.226562 264.960938 108.867188 265.4375 104.457031 C 265.957031 99.734375 262.886719 95.34375 259.640625 92.132812 Z M 225.34375 95.558594 C 224.441406 93.109375 222.960938 90.792969 220.589844 89.59375 C 218.339844 88.453125 215.800781 88.574219 213.386719 89.277344 C 214.09375 89.8125 214.71875 90.460938 215.328125 91.117188 C 216.390625 92.25 217.390625 93.347656 218.566406 94.371094 C 220.089844 95.699219 221.941406 96.089844 223.910156 95.84375 C 224.339844 95.789062 224.84375 95.695312 225.34375 95.558594 Z M 224.019531 114.652344 C 219.75 116.800781 215.222656 120.191406 214.289062 125.050781 C 213.558594 128.875 215.253906 132.597656 217.632812 135.730469 C 218.140625 133.898438 219.324219 132.347656 220.503906 130.890625 C 222.003906 129.046875 223.472656 127.308594 224.777344 125.3125 C 226.402344 122.832031 226.546875 120.167969 225.5 117.441406 C 225.164062 116.566406 224.628906 115.535156 224.019531 114.652344 Z M 207.464844 11.308594 C 204.234375 12.347656 200.742188 14.214844 199.535156 17.449219 C 198.742188 19.589844 199.117188 21.878906 199.992188 23.996094 C 200.640625 23.074219 201.503906 22.304688 202.367188 21.570312 C 203.722656 20.421875 205.050781 19.355469 206.292969 18.074219 C 207.71875 16.605469 208.214844 14.847656 207.882812 12.847656 C 207.800781 12.382812 207.65625 11.835938 207.464844 11.308594 Z M 211.230469 43.15625 C 211 45.089844 211.179688 47.136719 212.339844 48.710938 C 213.484375 50.257812 215.316406 51.019531 217.265625 51.339844 C 216.421875 49.617188 216.253906 47.808594 215.527344 46.003906 C 215.222656 45.253906 214.820312 44.578125 214.136719 44.117188 C 213.425781 43.640625 212.300781 43.359375 211.230469 43.15625 Z M 221.167969 41.953125 C 221.117188 41.835938 221.074219 41.710938 221.042969 41.582031 C 220.074219 37.496094 220.109375 32.945312 222.707031 29.4375 C 226.253906 24.621094 232.859375 23.960938 238.359375 24.535156 C 238.761719 24.574219 239.117188 24.746094 239.398438 24.996094 C 239.675781 25.242188 239.886719 25.582031 239.976562 25.976562 C 239.980469 26.007812 239.988281 26.042969 239.996094 26.078125 C 240.007812 26.140625 240.011719 26.207031 240.015625 26.269531 C 240.023438 26.332031 240.023438 26.398438 240.015625 26.464844 C 240.015625 26.496094 240.011719 26.535156 240.011719 26.570312 C 239.964844 26.96875 239.800781 27.328125 239.550781 27.605469 C 239.296875 27.886719 238.960938 28.097656 238.570312 28.183594 C 237.699219 28.375 236.722656 28.683594 236.160156 29.425781 C 235.660156 30.078125 235.371094 31.148438 235.152344 31.933594 C 234.695312 33.554688 234.273438 35.09375 233.636719 36.660156 C 232.496094 39.496094 230.210938 41.34375 227.359375 42.289062 C 226.75 42.492188 226.074219 42.664062 225.382812 42.785156 C 227.625 48.125 232.171875 50.574219 238.21875 50.925781 C 240.777344 51.074219 243.40625 50.832031 245.921875 50.347656 C 246.679688 50.203125 247.488281 50.03125 248.265625 49.824219 C 249.378906 43.65625 249.402344 36.820312 246.410156 31.191406 C 244.097656 26.847656 240.304688 23.871094 235.640625 22.390625 C 232.753906 21.476562 229.628906 21.167969 226.574219 21.433594 C 226.542969 21.4375 226.507812 21.441406 226.476562 21.441406 C 224.902344 21.585938 223.351562 21.886719 221.859375 22.332031 C 217.960938 23.492188 214.105469 25.8125 212.019531 29.410156 C 210.1875 32.558594 210.121094 36.015625 211.140625 39.386719 C 214.671875 40.015625 217.402344 40.75 218.964844 44.621094 C 219.292969 45.433594 219.523438 46.28125 219.75 47.128906 C 220.261719 49.046875 220.605469 50.953125 222.816406 51.445312 C 223.210938 51.535156 223.546875 51.742188 223.796875 52.023438 C 224.046875 52.304688 224.214844 52.664062 224.257812 53.0625 C 224.261719 53.097656 224.265625 53.128906 224.265625 53.167969 C 224.265625 53.230469 224.265625 53.296875 224.265625 53.359375 C 224.257812 53.425781 224.253906 53.488281 224.242188 53.554688 C 224.238281 53.585938 224.230469 53.621094 224.21875 53.65625 C 224.132812 54.046875 223.925781 54.382812 223.648438 54.632812 C 223.367188 54.882812 223.003906 55.050781 222.605469 55.09375 C 217.929688 55.578125 212.375 54.996094 209.363281 50.910156 C 207.273438 48.078125 207.121094 44.46875 207.8125 41.136719 C 207.628906 40.601562 207.46875 40.054688 207.332031 39.511719 C 205.96875 40.730469 204.28125 41.5 202.359375 41.804688 C 201.355469 41.964844 200.398438 41.273438 200.242188 40.265625 C 200.082031 39.257812 200.769531 38.308594 201.78125 38.144531 C 203.566406 37.863281 204.984375 36.996094 205.949219 35.457031 C 206.351562 34.8125 206.773438 33.851562 206.886719 33.085938 C 206.902344 32.972656 206.925781 32.863281 206.964844 32.757812 C 207.242188 30.972656 207.84375 29.226562 208.8125 27.546875 C 211.386719 23.117188 215.976562 20.222656 220.796875 18.78125 C 221.800781 18.484375 222.824219 18.242188 223.863281 18.058594 C 222.847656 15.886719 221.113281 13.933594 219.21875 12.617188 C 216.761719 10.910156 213.972656 10.144531 211.097656 10.484375 C 211.292969 11.082031 211.441406 11.6875 211.53125 12.242188 C 212.0625 15.402344 211.191406 18.339844 208.945312 20.652344 C 207.613281 22.023438 206.210938 23.167969 204.761719 24.398438 C 204.097656 24.957031 203.125 25.773438 202.761719 26.578125 C 202.429688 27.308594 202.570312 28.164062 202.769531 28.910156 C 202.867188 29.285156 202.847656 29.664062 202.726562 30.003906 C 202.609375 30.34375 202.386719 30.652344 202.074219 30.882812 C 201.980469 30.953125 201.886719 31.011719 201.78125 31.058594 C 201.679688 31.109375 201.570312 31.148438 201.460938 31.175781 C 201.089844 31.277344 200.710938 31.257812 200.367188 31.136719 C 200.027344 31.015625 199.714844 30.796875 199.488281 30.484375 C 196.523438 26.433594 194.199219 21.171875 196.066406 16.15625 C 197.929688 11.15625 203.140625 8.554688 208 7.296875 C 208.144531 7.257812 208.296875 7.238281 208.4375 7.234375 C 212.953125 6.023438 217.496094 6.914062 221.332031 9.574219 C 224.109375 11.503906 226.519531 14.417969 227.703125 17.65625 C 230.773438 17.546875 233.863281 17.9375 236.761719 18.859375 C 242.347656 20.636719 246.917969 24.25 249.679688 29.449219 C 253.027344 35.753906 253.167969 43.207031 251.972656 50.117188 C 258.855469 53.183594 262.59375 59.660156 262.300781 67.316406 C 262.175781 70.605469 261.28125 74.023438 259.582031 76.855469 C 258.636719 78.4375 257.402344 79.890625 255.894531 80.945312 C 258.546875 83.160156 260.675781 85.851562 261.742188 89.007812 C 266.046875 93.109375 269.796875 98.644531 269.117188 104.859375 C 268.28125 112.503906 261.1875 117.472656 254.738281 120.382812 C 254.375 120.546875 253.984375 120.585938 253.625 120.511719 C 253.257812 120.445312 252.914062 120.261719 252.640625 119.976562 C 252.597656 119.933594 252.554688 119.886719 252.519531 119.835938 C 252.492188 119.804688 252.46875 119.769531 252.441406 119.730469 C 252.414062 119.695312 252.394531 119.660156 252.371094 119.625 C 252.339844 119.570312 252.3125 119.519531 252.285156 119.460938 C 252.121094 119.097656 252.085938 118.710938 252.15625 118.347656 C 252.226562 117.984375 252.40625 117.636719 252.691406 117.363281 C 253.351562 116.726562 253.933594 115.96875 253.992188 115.027344 C 254.085938 113.519531 252.832031 111.34375 252.132812 110.054688 C 250.667969 107.351562 249.347656 104.835938 248.640625 101.800781 C 248.003906 99.070312 248.578125 96.433594 250.25 94.195312 C 251.933594 91.9375 254.871094 90.042969 257.695312 88.910156 C 256.570312 86.621094 254.671875 84.65625 252.703125 83.136719 C 249.410156 80.59375 245.378906 78.824219 241.382812 77.753906 C 240.484375 77.515625 239.589844 77.308594 238.6875 77.132812 C 238.65625 77.125 238.632812 77.121094 238.601562 77.117188 C 235.542969 76.523438 232.4375 76.292969 229.339844 76.398438 C 233.046875 78.460938 235.59375 81.742188 236.726562 86.070312 C 236.984375 87.054688 236.390625 88.070312 235.402344 88.328125 C 234.414062 88.585938 233.402344 87.992188 233.144531 87.003906 C 232.09375 82.988281 229.554688 80.246094 225.699219 78.785156 C 224.136719 78.195312 221.925781 77.707031 220.183594 77.710938 C 216.863281 78.554688 213.640625 79.800781 210.601562 81.414062 C 202.09375 85.925781 198.183594 93.132812 198.824219 102.652344 C 199.042969 105.90625 199.78125 109.171875 200.84375 112.25 C 201.027344 112.777344 201.226562 113.328125 201.4375 113.882812 C 202.949219 112.519531 204.617188 111.34375 206.359375 110.296875 C 210.5625 107.773438 215.035156 106.132812 219.5 104.195312 C 221.292969 103.414062 225.511719 101.621094 226.179688 99.589844 C 226.230469 99.441406 226.257812 99.296875 226.273438 99.148438 C 225.621094 99.320312 224.960938 99.445312 224.363281 99.519531 C 221.34375 99.894531 218.457031 99.191406 216.132812 97.164062 C 214.859375 96.054688 213.773438 94.875 212.621094 93.648438 C 212.050781 93.03125 211.300781 92.21875 210.542969 91.84375 C 209.707031 91.429688 208.738281 91.53125 207.855469 91.710938 C 207.460938 91.796875 207.074219 91.746094 206.726562 91.59375 C 206.386719 91.441406 206.085938 91.1875 205.882812 90.839844 C 205.863281 90.804688 205.839844 90.765625 205.820312 90.726562 C 205.796875 90.675781 205.769531 90.621094 205.75 90.570312 C 205.726562 90.515625 205.710938 90.460938 205.695312 90.402344 C 205.683594 90.363281 205.671875 90.316406 205.664062 90.273438 C 205.582031 89.882812 205.632812 89.496094 205.785156 89.152344 C 205.933594 88.8125 206.191406 88.511719 206.53125 88.308594 C 211.195312 85.550781 217.105469 83.683594 222.261719 86.292969 C 226.101562 88.234375 228.289062 92.066406 229.390625 96.089844 C 230.003906 97.589844 230.214844 99.175781 229.695312 100.746094 C 228.542969 104.246094 224.101562 106.234375 220.976562 107.589844 C 216.679688 109.457031 212.300781 111.046875 208.265625 113.472656 C 204.195312 115.914062 200.753906 119.046875 199.046875 123.582031 C 196.902344 129.285156 196.757812 135.273438 200.179688 140.507812 C 205.175781 148.164062 215.632812 151.238281 224.347656 150.394531 C 235.191406 149.34375 243.53125 142.789062 246.652344 132.257812 C 248.28125 126.773438 247.964844 121.253906 243.425781 117.300781 C 242.230469 116.257812 240.859375 115.429688 239.414062 114.789062 C 236.976562 113.703125 234.21875 113.105469 231.550781 113.011719 C 230.324219 112.972656 228.894531 113.035156 227.554688 113.304688 C 228.109375 114.203125 228.582031 115.152344 228.921875 116.019531 C 230.433594 119.882812 230.175781 123.832031 227.878906 127.34375 C 226.496094 129.453125 224.960938 131.28125 223.378906 133.226562 C 222.574219 134.21875 221.480469 135.5625 221.171875 136.820312 C 220.867188 138.078125 221.335938 139.351562 221.898438 140.46875 C 222.070312 140.820312 222.125 141.199219 222.074219 141.558594 C 222.023438 141.921875 221.867188 142.273438 221.601562 142.558594 C 221.523438 142.640625 221.441406 142.714844 221.355469 142.777344 C 221.269531 142.84375 221.171875 142.902344 221.074219 142.953125 C 220.722656 143.132812 220.34375 143.179688 219.984375 143.132812 C 219.621094 143.082031 219.269531 142.925781 218.984375 142.660156 C 216.183594 140.066406 213.546875 136.980469 211.949219 133.488281 C 210.625 130.601562 210.046875 127.496094 210.652344 124.351562 C 211.929688 117.691406 217.949219 113.3125 223.761719 110.675781 C 226.113281 109.535156 229.09375 109.21875 231.679688 109.308594 C 234.816406 109.414062 238.042969 110.125 240.914062 111.398438 C 250.089844 115.472656 253.027344 123.78125 250.203125 133.308594 C 246.65625 145.289062 237.050781 152.878906 224.710938 154.078125 C 214.59375 155.058594 202.847656 151.371094 197.078125 142.53125 C 193.003906 136.292969 193.015625 129.097656 195.585938 122.277344 C 196.335938 120.28125 197.375 118.46875 198.664062 116.832031 C 198.167969 115.734375 197.730469 114.558594 197.347656 113.460938 C 196.175781 110.070312 195.371094 106.484375 195.128906 102.902344 C 194.390625 91.925781 199.070312 83.34375 208.867188 78.144531 C 212.15625 76.398438 215.644531 75.054688 219.234375 74.132812 C 219.367188 74.085938 219.511719 74.050781 219.652344 74.027344 C 224.972656 72.71875 230.507812 72.34375 235.953125 72.96875 C 234.9375 71.003906 233.644531 69.046875 232.425781 67.546875 C 228.921875 63.238281 224.425781 60.414062 218.957031 60.230469 C 218.96875 61.171875 218.890625 62.128906 218.742188 62.941406 C 218.097656 66.511719 216.0625 69.304688 212.835938 70.988281 C 210.855469 72.027344 208.878906 72.792969 206.824219 73.632812 C 205.804688 74.050781 204.417969 74.617188 203.65625 75.4375 C 202.964844 76.179688 202.753906 77.195312 202.671875 78.175781 C 202.640625 78.558594 202.492188 78.90625 202.269531 79.1875 C 202.042969 79.464844 201.730469 79.683594 201.363281 79.792969 C 201.25 79.824219 201.132812 79.851562 201.023438 79.863281 C 200.90625 79.875 200.789062 79.875 200.671875 79.867188 C 200.289062 79.835938 199.941406 79.6875 199.660156 79.460938 C 199.382812 79.234375 199.164062 78.929688 199.054688 78.558594 C 197.425781 73.167969 196.996094 66.886719 200.691406 62.210938 C 204.503906 57.382812 211.101562 56.289062 216.898438 56.566406 C 224.382812 56.046875 230.667969 59.515625 235.300781 65.210938 C 237.199219 67.546875 239.179688 70.75 240.367188 73.695312 C 241.03125 73.84375 241.683594 74.003906 242.339844 74.175781 C 245.648438 75.066406 249.296875 76.523438 252.574219 78.558594 C 254.222656 77.917969 255.527344 76.429688 256.40625 74.960938 C 257.78125 72.660156 258.503906 69.847656 258.605469 67.179688 C 258.847656 60.800781 255.757812 55.570312 249.820312 53.234375 C 248.777344 53.542969 247.664062 53.785156 246.625 53.988281 C 243.804688 54.527344 240.875 54.792969 238.007812 54.625 C 229.714844 54.144531 223.527344 50.117188 221.167969 41.953125 Z M 221.167969 41.953125 " fill-opacity="1" fill-rule="nonzero"/></g><g clip-path="url(#0b279f786c)"><path fill="#82a7c9" d="M 150.613281 39.203125 C 149.964844 39.109375 149.316406 38.957031 148.765625 38.773438 C 146.957031 38.171875 145.488281 37.089844 144.757812 35.277344 C 143.703125 32.667969 143.394531 30.171875 142.367188 28.207031 C 145.078125 28.535156 147.691406 29.488281 149.273438 31.632812 C 150.859375 33.785156 151.011719 36.605469 150.613281 39.203125 M 159.707031 60.230469 C 163.90625 60.226562 168.695312 61.125 171.363281 64.503906 C 173.113281 66.714844 173.566406 69.511719 173.371094 72.296875 C 172.253906 71.363281 170.886719 70.757812 169.542969 70.207031 C 167.597656 69.410156 165.714844 68.6875 163.84375 67.707031 C 161.664062 66.566406 160.34375 64.78125 159.882812 62.378906 C 159.765625 61.75 159.695312 60.976562 159.707031 60.230469 Z M 115.324219 92.132812 C 117.484375 92.917969 119.949219 94.34375 121.34375 95.917969 C 122.644531 97.386719 123.167969 99.011719 122.714844 100.960938 C 122.09375 103.632812 120.863281 105.90625 119.570312 108.292969 C 118.527344 110.214844 117.339844 112.378906 117.261719 114.625 C 113.464844 112.226562 110.003906 108.867188 109.523438 104.457031 C 109.007812 99.734375 112.074219 95.34375 115.324219 92.132812 Z M 149.621094 95.558594 C 150.515625 93.109375 151.996094 90.792969 154.367188 89.59375 C 156.621094 88.453125 159.160156 88.574219 161.574219 89.277344 C 160.867188 89.8125 160.242188 90.460938 159.628906 91.117188 C 158.570312 92.25 157.566406 93.347656 156.394531 94.371094 C 154.871094 95.699219 153.019531 96.089844 151.050781 95.84375 C 150.621094 95.789062 150.117188 95.695312 149.621094 95.558594 Z M 150.941406 114.652344 C 155.214844 116.800781 159.738281 120.191406 160.671875 125.050781 C 161.40625 128.875 159.707031 132.597656 157.328125 135.730469 C 156.824219 133.898438 155.636719 132.347656 154.457031 130.890625 C 152.957031 129.046875 151.488281 127.308594 150.179688 125.3125 C 148.558594 122.832031 148.414062 120.167969 149.460938 117.441406 C 149.792969 116.566406 150.332031 115.535156 150.941406 114.652344 Z M 167.496094 11.308594 C 170.726562 12.347656 174.214844 14.214844 175.421875 17.449219 C 176.21875 19.589844 175.839844 21.878906 174.96875 23.996094 C 174.316406 23.074219 173.457031 22.304688 172.59375 21.570312 C 171.238281 20.421875 169.914062 19.355469 168.667969 18.074219 C 167.246094 16.605469 166.746094 14.847656 167.082031 12.847656 C 167.160156 12.382812 167.304688 11.835938 167.496094 11.308594 Z M 163.730469 43.15625 C 163.964844 45.089844 163.78125 47.136719 162.621094 48.710938 C 161.480469 50.257812 159.644531 51.019531 157.691406 51.339844 C 158.539062 49.617188 158.707031 47.808594 159.433594 46.003906 C 159.738281 45.253906 160.140625 44.578125 160.824219 44.117188 C 161.53125 43.640625 162.65625 43.359375 163.730469 43.15625 Z M 153.789062 41.953125 C 153.84375 41.835938 153.886719 41.710938 153.917969 41.582031 C 154.882812 37.496094 154.84375 32.945312 152.253906 29.4375 C 148.703125 24.621094 142.101562 23.960938 136.601562 24.535156 C 136.199219 24.574219 135.84375 24.746094 135.5625 24.996094 C 135.28125 25.242188 135.074219 25.582031 134.984375 25.976562 C 134.976562 26.007812 134.972656 26.042969 134.964844 26.078125 C 134.957031 26.140625 134.945312 26.207031 134.945312 26.269531 C 134.941406 26.332031 134.941406 26.398438 134.941406 26.464844 C 134.945312 26.496094 134.945312 26.535156 134.953125 26.570312 C 134.992188 26.96875 135.160156 27.328125 135.410156 27.605469 C 135.660156 27.886719 136 28.097656 136.390625 28.183594 C 137.261719 28.375 138.238281 28.683594 138.800781 29.425781 C 139.300781 30.078125 139.589844 31.148438 139.8125 31.933594 C 140.265625 33.554688 140.6875 35.09375 141.320312 36.660156 C 142.464844 39.496094 144.75 41.34375 147.601562 42.289062 C 148.214844 42.492188 148.886719 42.664062 149.578125 42.785156 C 147.335938 48.125 142.789062 50.574219 136.742188 50.925781 C 134.183594 51.074219 131.554688 50.832031 129.039062 50.347656 C 128.28125 50.203125 127.472656 50.03125 126.695312 49.824219 C 125.582031 43.65625 125.558594 36.820312 128.550781 31.191406 C 130.859375 26.847656 134.652344 23.871094 139.316406 22.390625 C 142.207031 21.476562 145.332031 21.167969 148.386719 21.433594 C 148.417969 21.4375 148.453125 21.441406 148.484375 21.441406 C 150.054688 21.585938 151.609375 21.886719 153.101562 22.332031 C 157 23.492188 160.855469 25.8125 162.945312 29.410156 C 164.769531 32.558594 164.839844 36.015625 163.820312 39.386719 C 160.289062 40.015625 157.558594 40.75 155.996094 44.621094 C 155.667969 45.433594 155.4375 46.28125 155.210938 47.128906 C 154.699219 49.046875 154.355469 50.953125 152.144531 51.445312 C 151.75 51.535156 151.414062 51.742188 151.164062 52.023438 C 150.914062 52.304688 150.746094 52.664062 150.703125 53.0625 C 150.699219 53.097656 150.695312 53.128906 150.695312 53.167969 C 150.695312 53.230469 150.695312 53.296875 150.695312 53.359375 C 150.699219 53.425781 150.707031 53.488281 150.71875 53.554688 C 150.726562 53.585938 150.730469 53.621094 150.738281 53.65625 C 150.828125 54.046875 151.035156 54.382812 151.316406 54.632812 C 151.597656 54.882812 151.957031 55.050781 152.355469 55.09375 C 157.03125 55.578125 162.585938 54.996094 165.597656 50.910156 C 167.6875 48.078125 167.839844 44.46875 167.148438 41.136719 C 167.332031 40.601562 167.492188 40.054688 167.628906 39.511719 C 168.992188 40.730469 170.679688 41.5 172.601562 41.804688 C 173.609375 41.964844 174.558594 41.273438 174.71875 40.265625 C 174.878906 39.257812 174.191406 38.308594 173.179688 38.144531 C 171.394531 37.863281 169.972656 36.996094 169.011719 35.457031 C 168.605469 34.8125 168.1875 33.851562 168.074219 33.085938 C 168.058594 32.972656 168.035156 32.863281 168 32.757812 C 167.71875 30.972656 167.117188 29.226562 166.144531 27.546875 C 163.574219 23.117188 158.984375 20.222656 154.160156 18.78125 C 153.160156 18.484375 152.132812 18.242188 151.097656 18.058594 C 152.113281 15.886719 153.847656 13.933594 155.742188 12.617188 C 158.199219 10.910156 160.992188 10.144531 163.859375 10.484375 C 163.667969 11.082031 163.519531 11.6875 163.429688 12.242188 C 162.898438 15.402344 163.765625 18.339844 166.011719 20.652344 C 167.347656 22.023438 168.75 23.167969 170.199219 24.398438 C 170.863281 24.957031 171.835938 25.773438 172.199219 26.578125 C 172.53125 27.308594 172.390625 28.164062 172.191406 28.910156 C 172.089844 29.285156 172.113281 29.664062 172.234375 30.003906 C 172.351562 30.34375 172.574219 30.652344 172.886719 30.882812 C 172.980469 30.953125 173.078125 31.011719 173.179688 31.058594 C 173.277344 31.109375 173.386719 31.148438 173.5 31.175781 C 173.875 31.277344 174.253906 31.257812 174.59375 31.136719 C 174.933594 31.015625 175.242188 30.796875 175.472656 30.484375 C 178.4375 26.433594 180.757812 21.171875 178.890625 16.15625 C 177.03125 11.15625 171.820312 8.554688 166.960938 7.296875 C 166.8125 7.257812 166.667969 7.238281 166.523438 7.234375 C 162.007812 6.023438 157.464844 6.914062 153.628906 9.574219 C 150.851562 11.503906 148.445312 14.417969 147.257812 17.65625 C 144.1875 17.546875 141.097656 17.9375 138.199219 18.859375 C 132.609375 20.636719 128.046875 24.25 125.28125 29.449219 C 121.929688 35.753906 121.789062 43.207031 122.988281 50.117188 C 116.105469 53.183594 112.367188 59.660156 112.65625 67.316406 C 112.78125 70.605469 113.683594 74.023438 115.378906 76.855469 C 116.320312 78.4375 117.558594 79.890625 119.066406 80.945312 C 116.414062 83.160156 114.285156 85.851562 113.222656 89.007812 C 108.917969 93.109375 105.164062 98.644531 105.839844 104.859375 C 106.675781 112.503906 113.769531 117.472656 120.222656 120.382812 C 120.585938 120.546875 120.972656 120.585938 121.335938 120.511719 C 121.699219 120.445312 122.046875 120.261719 122.320312 119.976562 C 122.363281 119.933594 122.40625 119.886719 122.441406 119.835938 C 122.46875 119.804688 122.492188 119.769531 122.519531 119.730469 C 122.542969 119.695312 122.566406 119.660156 122.589844 119.625 C 122.621094 119.570312 122.648438 119.519531 122.671875 119.460938 C 122.835938 119.097656 122.871094 118.710938 122.804688 118.347656 C 122.730469 117.984375 122.554688 117.636719 122.269531 117.363281 C 121.605469 116.726562 121.027344 115.96875 120.96875 115.027344 C 120.875 113.519531 122.125 111.34375 122.828125 110.054688 C 124.292969 107.351562 125.613281 104.835938 126.320312 101.800781 C 126.957031 99.070312 126.382812 96.433594 124.710938 94.195312 C 123.027344 91.9375 120.089844 90.042969 117.261719 88.910156 C 118.390625 86.621094 120.289062 84.65625 122.261719 83.136719 C 125.550781 80.59375 129.578125 78.824219 133.582031 77.753906 C 134.472656 77.515625 135.371094 77.308594 136.273438 77.132812 C 136.300781 77.125 136.328125 77.121094 136.359375 77.117188 C 139.414062 76.523438 142.523438 76.292969 145.621094 76.398438 C 141.914062 78.460938 139.363281 81.742188 138.234375 86.070312 C 137.976562 87.054688 138.570312 88.070312 139.558594 88.328125 C 140.542969 88.585938 141.558594 87.992188 141.816406 87.003906 C 142.867188 82.988281 145.40625 80.246094 149.257812 78.785156 C 150.820312 78.195312 153.035156 77.707031 154.777344 77.710938 C 158.097656 78.554688 161.320312 79.800781 164.363281 81.414062 C 172.867188 85.925781 176.78125 93.132812 176.136719 102.652344 C 175.917969 105.90625 175.179688 109.171875 174.117188 112.25 C 173.933594 112.777344 173.734375 113.328125 173.519531 113.882812 C 172.007812 112.519531 170.34375 111.34375 168.601562 110.296875 C 164.398438 107.773438 159.925781 106.132812 155.460938 104.195312 C 153.671875 103.414062 149.449219 101.621094 148.777344 99.589844 C 148.730469 99.441406 148.703125 99.296875 148.6875 99.148438 C 149.339844 99.320312 150 99.445312 150.597656 99.519531 C 153.613281 99.894531 156.503906 99.191406 158.828125 97.164062 C 160.101562 96.054688 161.191406 94.875 162.335938 93.648438 C 162.910156 93.03125 163.660156 92.21875 164.417969 91.84375 C 165.253906 91.429688 166.222656 91.53125 167.109375 91.710938 C 167.5 91.796875 167.890625 91.746094 168.230469 91.59375 C 168.574219 91.441406 168.875 91.1875 169.074219 90.839844 C 169.097656 90.804688 169.121094 90.765625 169.140625 90.726562 C 169.167969 90.675781 169.1875 90.621094 169.207031 90.570312 C 169.230469 90.515625 169.25 90.460938 169.265625 90.402344 C 169.277344 90.363281 169.289062 90.316406 169.296875 90.273438 C 169.375 89.882812 169.328125 89.496094 169.175781 89.152344 C 169.023438 88.8125 168.769531 88.511719 168.425781 88.308594 C 163.761719 85.550781 157.851562 83.683594 152.699219 86.292969 C 148.855469 88.234375 146.671875 92.066406 145.566406 96.089844 C 144.949219 97.589844 144.742188 99.175781 145.257812 100.746094 C 146.414062 104.246094 150.859375 106.234375 153.980469 107.589844 C 158.277344 109.457031 162.65625 111.046875 166.695312 113.472656 C 170.761719 115.914062 174.203125 119.046875 175.910156 123.582031 C 178.054688 129.285156 178.199219 135.273438 174.78125 140.507812 C 169.78125 148.164062 159.324219 151.238281 150.609375 150.394531 C 139.761719 149.34375 131.425781 142.789062 128.304688 132.257812 C 126.679688 126.773438 126.996094 121.253906 131.53125 117.300781 C 132.726562 116.257812 134.097656 115.429688 135.542969 114.789062 C 137.984375 113.703125 140.738281 113.105469 143.40625 113.011719 C 144.632812 112.972656 146.0625 113.035156 147.402344 113.304688 C 146.851562 114.203125 146.375 115.152344 146.035156 116.019531 C 144.523438 119.882812 144.78125 123.832031 147.078125 127.34375 C 148.460938 129.453125 149.996094 131.28125 151.578125 133.226562 C 152.378906 134.21875 153.472656 135.5625 153.78125 136.820312 C 154.089844 138.078125 153.625 139.351562 153.0625 140.46875 C 152.886719 140.820312 152.832031 141.199219 152.882812 141.558594 C 152.933594 141.921875 153.09375 142.273438 153.355469 142.558594 C 153.433594 142.640625 153.515625 142.714844 153.601562 142.777344 C 153.691406 142.84375 153.78125 142.902344 153.882812 142.953125 C 154.234375 143.132812 154.613281 143.179688 154.976562 143.132812 C 155.335938 143.082031 155.683594 142.925781 155.976562 142.660156 C 158.777344 140.066406 161.410156 136.980469 163.007812 133.488281 C 164.328125 130.601562 164.910156 127.496094 164.308594 124.351562 C 163.027344 117.691406 157.007812 113.3125 151.195312 110.675781 C 148.847656 109.535156 145.863281 109.21875 143.28125 109.308594 C 140.140625 109.414062 136.917969 110.125 134.042969 111.398438 C 124.863281 115.472656 121.929688 123.78125 124.753906 133.308594 C 128.304688 145.289062 137.902344 152.878906 150.25 154.078125 C 160.363281 155.058594 172.109375 151.371094 177.878906 142.53125 C 181.957031 136.292969 181.941406 129.097656 179.375 122.277344 C 178.621094 120.28125 177.582031 118.46875 176.296875 116.832031 C 176.792969 115.734375 177.230469 114.558594 177.613281 113.460938 C 178.785156 110.070312 179.585938 106.484375 179.828125 102.902344 C 180.570312 91.925781 175.894531 83.34375 166.089844 78.144531 C 162.800781 76.398438 159.316406 75.054688 155.722656 74.132812 C 155.589844 74.085938 155.449219 74.050781 155.300781 74.027344 C 149.984375 72.71875 144.453125 72.34375 139.003906 72.96875 C 140.023438 71.003906 141.316406 69.046875 142.53125 67.546875 C 146.039062 63.238281 150.53125 60.414062 156.003906 60.230469 C 155.992188 61.171875 156.070312 62.128906 156.21875 62.941406 C 156.863281 66.511719 158.894531 69.304688 162.121094 70.988281 C 164.101562 72.027344 166.082031 72.792969 168.136719 73.632812 C 169.152344 74.050781 170.542969 74.617188 171.300781 75.4375 C 171.992188 76.179688 172.207031 77.195312 172.289062 78.175781 C 172.320312 78.558594 172.464844 78.90625 172.691406 79.1875 C 172.917969 79.464844 173.226562 79.683594 173.597656 79.792969 C 173.710938 79.824219 173.824219 79.851562 173.9375 79.863281 C 174.054688 79.875 174.171875 79.875 174.289062 79.867188 C 174.667969 79.835938 175.019531 79.6875 175.296875 79.460938 C 175.578125 79.234375 175.792969 78.929688 175.90625 78.558594 C 177.535156 73.167969 177.960938 66.886719 174.269531 62.210938 C 170.457031 57.382812 163.863281 56.289062 158.0625 56.566406 C 150.582031 56.046875 144.292969 59.515625 139.660156 65.210938 C 137.761719 67.546875 135.78125 70.75 134.589844 73.695312 C 133.929688 73.84375 133.273438 74.003906 132.621094 74.175781 C 129.308594 75.066406 125.660156 76.523438 122.386719 78.558594 C 120.738281 77.917969 119.433594 76.429688 118.554688 74.960938 C 117.179688 72.660156 116.457031 69.847656 116.355469 67.179688 C 116.113281 60.800781 119.203125 55.570312 125.140625 53.234375 C 126.183594 53.542969 127.292969 53.785156 128.335938 53.988281 C 131.15625 54.527344 134.089844 54.792969 136.953125 54.625 C 145.242188 54.144531 151.433594 50.117188 153.789062 41.953125 Z M 153.789062 41.953125 " fill-opacity="1" fill-rule="nonzero"/></g><g clip-path="url(#8b6c4df45e)"><path fill="#d6be6a" d="M 186.914062 184.347656 C 186.914062 184.347656 187.128906 184.359375 187.480469 184.335938 C 187.832031 184.359375 188.046875 184.347656 188.046875 184.347656 L 188.046875 184.28125 C 188.964844 184.164062 189.890625 184.152344 191.328125 182.960938 C 192.773438 181.769531 198.964844 179.492188 198.332031 176.210938 C 197.699219 172.929688 195.933594 175.28125 197.386719 172.949219 C 198.839844 170.617188 200.851562 169.355469 197.890625 165.941406 C 194.929688 162.539062 197.765625 161.46875 198.144531 160.648438 C 198.523438 159.828125 200.289062 158.4375 195.429688 154.335938 C 193 152.289062 181.960938 152.289062 179.53125 154.335938 C 174.671875 158.4375 176.4375 159.828125 176.820312 160.648438 C 177.195312 161.46875 180.035156 162.539062 177.070312 165.941406 C 174.105469 169.351562 176.121094 170.617188 177.574219 172.949219 C 179.023438 175.28125 177.257812 172.925781 176.628906 176.210938 C 175.996094 179.492188 182.1875 181.769531 183.632812 182.960938 C 185.074219 184.152344 185.996094 184.164062 186.914062 184.28125 Z M 186.914062 184.347656 " fill-opacity="1" fill-rule="nonzero"/></g><path fill="#d6be6a" d="M 182.617188 54.601562 C 182.265625 53.390625 181.597656 51.527344 180.804688 51.320312 C 180.238281 51.175781 179.511719 51.066406 178.9375 51.21875 C 178.800781 51.253906 178.535156 51.355469 178.46875 51.5 C 178.28125 51.921875 179.144531 52.765625 179.402344 52.980469 C 180.261719 53.691406 181.421875 54.214844 182.617188 54.601562 M 190.609375 57.492188 C 190.308594 59.792969 190.21875 61.96875 190.1875 63.269531 C 190.09375 66.980469 190.253906 144.929688 190.554688 148.625 C 190.691406 150.328125 190.851562 152.0625 191.082031 153.757812 C 191.175781 154.464844 190.675781 155.117188 189.96875 155.214844 C 189.257812 155.308594 188.609375 154.808594 188.511719 154.105469 C 188.28125 152.359375 188.113281 150.585938 187.96875 148.835938 C 187.664062 145.046875 187.5 67.007812 187.597656 63.207031 C 187.632812 61.796875 187.707031 59.953125 187.921875 57.992188 C 187.28125 58.035156 186.625 58.027344 185.964844 57.960938 C 186.316406 60.261719 186.5 62.632812 186.628906 64.886719 C 186.828125 68.378906 186.875 146.09375 186.835938 149.589844 C 186.820312 151.203125 186.789062 152.824219 186.71875 154.433594 C 186.6875 155.144531 186.078125 155.699219 185.367188 155.667969 C 184.65625 155.636719 184.097656 155.027344 184.128906 154.316406 C 184.199219 152.734375 184.226562 151.140625 184.246094 149.5625 C 184.285156 146.121094 184.234375 68.46875 184.042969 65.03125 C 183.902344 62.578125 183.695312 59.957031 183.261719 57.46875 C 181.28125 56.988281 179.246094 56.210938 177.75 54.972656 C 176.460938 53.90625 175.34375 52.140625 176.105469 50.4375 C 177.015625 48.402344 179.605469 48.328125 181.460938 48.8125 C 183.84375 49.4375 184.851562 52.710938 185.355469 54.808594 C 185.394531 54.964844 185.429688 55.121094 185.464844 55.277344 C 185.519531 55.289062 185.574219 55.296875 185.628906 55.304688 C 186.53125 55.453125 187.429688 55.464844 188.300781 55.347656 C 189.015625 51.371094 190.472656 47.476562 193.46875 46.136719 C 194.953125 45.476562 197.066406 44.925781 198.316406 46.332031 C 199.253906 47.394531 199.089844 48.933594 198.648438 50.167969 C 198.136719 51.613281 197.167969 52.984375 196.109375 54.078125 C 194.558594 55.683594 192.667969 56.863281 190.609375 57.492188 Z M 196.382812 48.066406 C 196.011719 47.910156 194.832031 48.371094 194.53125 48.503906 C 192.789062 49.285156 191.75 51.75 191.125 54.527344 C 192.207031 54.019531 193.207031 53.3125 194.085938 52.441406 C 194.90625 51.632812 195.6875 50.597656 196.125 49.519531 C 196.230469 49.261719 196.523438 48.371094 196.382812 48.066406 Z M 196.382812 48.066406 " fill-opacity="1" fill-rule="nonzero"/><g fill="#464655" fill-opacity="1"><g transform="translate(2.191948, 274.577623)"><g><path d="M 29.84375 -25.015625 C 29.59375 -25.316406 29.414062 -25.566406 29.3125 -25.765625 C 29.21875 -25.960938 29.269531 -26.238281 29.46875 -26.59375 C 30.476562 -28.3125 31.347656 -30.175781 32.078125 -32.1875 C 32.804688 -34.207031 33.171875 -36.273438 33.171875 -38.390625 C 33.171875 -41.210938 32.71875 -43.59375 31.8125 -45.53125 C 30.90625 -47.46875 29.671875 -49.050781 28.109375 -50.28125 C 26.546875 -51.519531 24.742188 -52.414062 22.703125 -52.96875 C 20.660156 -53.519531 18.53125 -53.847656 16.3125 -53.953125 C 14.101562 -54.054688 11.863281 -53.957031 9.59375 -53.65625 C 7.332031 -53.351562 5.191406 -52.921875 3.171875 -52.359375 L 3.09375 -52.296875 C 3.25 -43.523438 3.25 -34.84375 3.09375 -26.25 C 2.945312 -17.664062 3.023438 -9.015625 3.328125 -0.296875 C 3.578125 -0.203125 3.835938 -0.15625 4.109375 -0.15625 C 4.390625 -0.15625 4.679688 -0.15625 4.984375 -0.15625 C 6.796875 -0.101562 8.75 -0.00390625 10.84375 0.140625 C 12.9375 0.296875 15.023438 0.359375 17.109375 0.328125 C 19.203125 0.304688 21.226562 0.160156 23.1875 -0.109375 C 25.15625 -0.390625 26.945312 -0.929688 28.5625 -1.734375 C 30.175781 -2.546875 31.546875 -3.691406 32.671875 -5.171875 C 33.804688 -6.660156 34.578125 -8.585938 34.984375 -10.953125 C 35.285156 -12.566406 35.332031 -14.023438 35.125 -15.328125 C 34.925781 -16.640625 34.5625 -17.835938 34.03125 -18.921875 C 33.507812 -20.003906 32.882812 -21.035156 32.15625 -22.015625 C 31.425781 -23.003906 30.65625 -24.003906 29.84375 -25.015625 Z M 22.75 -12.46875 C 22.238281 -11.863281 21.644531 -11.421875 20.96875 -11.140625 C 20.289062 -10.867188 19.5625 -10.691406 18.78125 -10.609375 C 18 -10.535156 17.21875 -10.507812 16.4375 -10.53125 C 15.65625 -10.5625 14.910156 -10.578125 14.203125 -10.578125 L 14.046875 -10.65625 C 13.648438 -11.257812 13.375 -12.015625 13.21875 -12.921875 C 13.070312 -13.828125 13.007812 -14.769531 13.03125 -15.75 C 13.0625 -16.738281 13.148438 -17.707031 13.296875 -18.65625 C 13.453125 -19.613281 13.628906 -20.472656 13.828125 -21.234375 C 14.785156 -21.128906 15.765625 -21.0625 16.765625 -21.03125 C 17.773438 -21.007812 18.757812 -20.875 19.71875 -20.625 C 20.375 -20.476562 21.003906 -20.164062 21.609375 -19.6875 C 22.210938 -19.207031 22.664062 -18.664062 22.96875 -18.0625 C 23.320312 -17.207031 23.507812 -16.25 23.53125 -15.1875 C 23.5625 -14.125 23.300781 -13.21875 22.75 -12.46875 Z M 22.671875 -34 C 22.265625 -33.25 21.722656 -32.679688 21.046875 -32.296875 C 20.367188 -31.921875 19.625 -31.679688 18.8125 -31.578125 C 18.007812 -31.484375 17.175781 -31.457031 16.3125 -31.5 C 15.457031 -31.550781 14.65625 -31.628906 13.90625 -31.734375 C 13.445312 -33.492188 13.304688 -35.207031 13.484375 -36.875 C 13.660156 -38.539062 13.695312 -39.953125 13.59375 -41.109375 C 14.351562 -41.503906 15.300781 -41.691406 16.4375 -41.671875 C 17.570312 -41.648438 18.640625 -41.535156 19.640625 -41.328125 C 20.453125 -41.128906 21.171875 -40.816406 21.796875 -40.390625 C 22.429688 -39.960938 22.945312 -39.34375 23.34375 -38.53125 C 23.75 -37.726562 23.828125 -36.921875 23.578125 -36.109375 C 23.328125 -35.304688 23.023438 -34.601562 22.671875 -34 Z M 22.671875 -34 "/></g></g></g><g fill="#464655" fill-opacity="1"><g transform="translate(38.23715, 274.577623)"><g><path d="M 38.984375 -0.234375 C 38.234375 -2.296875 37.300781 -4.296875 36.1875 -6.234375 C 35.082031 -8.171875 33.925781 -10.070312 32.71875 -11.9375 C 31.507812 -13.800781 30.273438 -15.648438 29.015625 -17.484375 C 27.753906 -19.328125 26.597656 -21.179688 25.546875 -23.046875 L 25.546875 -23.125 L 25.921875 -23.125 C 28.335938 -23.269531 30.335938 -23.945312 31.921875 -25.15625 C 33.515625 -26.363281 34.785156 -27.878906 35.734375 -29.703125 C 37.296875 -32.316406 38.039062 -35.019531 37.96875 -37.8125 C 37.894531 -40.613281 37.203125 -43.171875 35.890625 -45.484375 C 34.578125 -47.804688 32.738281 -49.75 30.375 -51.3125 C 28.007812 -52.875 25.335938 -53.726562 22.359375 -53.875 C 18.679688 -54.28125 15.15625 -54.304688 11.78125 -53.953125 C 8.40625 -53.597656 5.3125 -53.21875 2.5 -52.8125 C 2.59375 -52.15625 2.675781 -50.90625 2.75 -49.0625 C 2.832031 -47.226562 2.894531 -45.015625 2.9375 -42.421875 C 2.988281 -39.828125 3.050781 -36.984375 3.125 -33.890625 C 3.207031 -30.796875 3.257812 -27.671875 3.28125 -24.515625 C 3.3125 -21.367188 3.328125 -18.320312 3.328125 -15.375 C 3.328125 -12.425781 3.328125 -9.816406 3.328125 -7.546875 C 3.328125 -5.285156 3.300781 -3.460938 3.25 -2.078125 C 3.195312 -0.691406 3.117188 0 3.015625 0 C 3.273438 -0.0507812 3.945312 -0.0507812 5.03125 0 C 6.113281 0.0507812 7.332031 0.0625 8.6875 0.03125 C 10.050781 0.0078125 11.425781 -0.046875 12.8125 -0.140625 C 14.195312 -0.242188 15.316406 -0.472656 16.171875 -0.828125 C 16.117188 -1.785156 16.039062 -3.070312 15.9375 -4.6875 C 15.84375 -6.300781 15.753906 -8 15.671875 -9.78125 C 15.597656 -11.570312 15.5625 -13.3125 15.5625 -15 C 15.5625 -16.6875 15.640625 -18.109375 15.796875 -19.265625 L 15.9375 -19.046875 C 17 -17.734375 18.054688 -16.21875 19.109375 -14.5 C 20.171875 -12.789062 21.15625 -11.054688 22.0625 -9.296875 C 22.96875 -7.535156 23.796875 -5.847656 24.546875 -4.234375 C 25.304688 -2.617188 25.941406 -1.234375 26.453125 -0.078125 L 26.515625 -0.078125 C 28.785156 0.078125 31.003906 0.09375 33.171875 -0.03125 C 35.335938 -0.164062 37.300781 -0.234375 39.0625 -0.234375 Z M 13.53125 -42.234375 C 15.289062 -42.941406 17.023438 -43.332031 18.734375 -43.40625 C 20.453125 -43.488281 21.863281 -43.023438 22.96875 -42.015625 C 23.675781 -41.460938 24.179688 -40.71875 24.484375 -39.78125 C 24.785156 -38.851562 24.882812 -37.921875 24.78125 -36.984375 C 24.6875 -36.054688 24.375 -35.203125 23.84375 -34.421875 C 23.3125 -33.640625 22.566406 -33.144531 21.609375 -32.9375 C 20.398438 -32.738281 19.113281 -32.664062 17.75 -32.71875 C 16.394531 -32.769531 15.140625 -32.84375 13.984375 -32.9375 L 13.90625 -32.9375 C 13.800781 -33.5 13.734375 -34.179688 13.703125 -34.984375 C 13.679688 -35.785156 13.671875 -36.613281 13.671875 -37.46875 C 13.671875 -38.332031 13.65625 -39.175781 13.625 -40 C 13.601562 -40.832031 13.570312 -41.578125 13.53125 -42.234375 Z M 13.53125 -42.234375 "/></g></g></g><g fill="#464655" fill-opacity="1"><g transform="translate(77.380576, 274.577623)"><g><path d="M 14.96875 -53.125 C 12.695312 -53.070312 10.96875 -53.082031 9.78125 -53.15625 C 8.601562 -53.226562 7.5625 -53.289062 6.65625 -53.34375 C 6.300781 -53.34375 5.753906 -53.378906 5.015625 -53.453125 C 4.285156 -53.535156 3.796875 -53.550781 3.546875 -53.5 L 3.546875 -53.34375 C 3.097656 -49.113281 2.882812 -44.796875 2.90625 -40.390625 C 2.9375 -35.984375 3.015625 -31.523438 3.140625 -27.015625 C 3.265625 -22.503906 3.347656 -17.957031 3.390625 -13.375 C 3.441406 -8.789062 3.296875 -4.234375 2.953125 0.296875 C 3.453125 0.148438 4.378906 0.113281 5.734375 0.1875 C 7.097656 0.257812 8.519531 0.320312 10 0.375 C 11.488281 0.425781 12.875 0.414062 14.15625 0.34375 C 15.445312 0.269531 16.296875 0.03125 16.703125 -0.375 C 16.453125 -4.65625 16.300781 -8.988281 16.25 -13.375 C 16.195312 -17.757812 16.207031 -22.15625 16.28125 -26.5625 C 16.351562 -30.96875 16.453125 -35.359375 16.578125 -39.734375 C 16.710938 -44.117188 16.78125 -48.476562 16.78125 -52.8125 L 16.78125 -53.125 Z M 14.96875 -53.125 "/></g></g></g><g fill="#464655" fill-opacity="1"><g transform="translate(97.027868, 274.577623)"><g><path d="M 18.359375 -26.296875 C 18.253906 -26.242188 18.203125 -26.21875 18.203125 -26.21875 C 18.160156 -26.21875 18.140625 -26.191406 18.140625 -26.140625 L 18.140625 -26.0625 C 18.234375 -25.15625 18.28125 -24.398438 18.28125 -23.796875 C 18.28125 -23.191406 18.265625 -22.597656 18.234375 -22.015625 C 18.210938 -21.441406 18.210938 -20.851562 18.234375 -20.25 C 18.265625 -19.644531 18.332031 -18.941406 18.4375 -18.140625 C 18.6875 -18.035156 19.050781 -17.96875 19.53125 -17.9375 C 20.007812 -17.914062 20.535156 -17.914062 21.109375 -17.9375 C 21.691406 -17.96875 22.25 -17.992188 22.78125 -18.015625 C 23.3125 -18.046875 23.726562 -18.035156 24.03125 -17.984375 C 24.175781 -17.929688 24.257812 -17.703125 24.28125 -17.296875 C 24.3125 -16.898438 24.3125 -16.445312 24.28125 -15.9375 C 24.257812 -15.4375 24.210938 -14.945312 24.140625 -14.46875 C 24.066406 -13.988281 24.003906 -13.648438 23.953125 -13.453125 C 23.753906 -12.742188 23.453125 -12.175781 23.046875 -11.75 C 22.640625 -11.320312 22.160156 -10.984375 21.609375 -10.734375 C 20.898438 -10.484375 20.128906 -10.28125 19.296875 -10.125 C 18.472656 -9.976562 17.679688 -9.953125 16.921875 -10.046875 C 16.222656 -10.203125 15.644531 -10.429688 15.1875 -10.734375 C 14.226562 -11.484375 13.597656 -12.515625 13.296875 -13.828125 C 12.992188 -15.140625 12.789062 -16.347656 12.6875 -17.453125 C 12.539062 -19.316406 12.441406 -21.28125 12.390625 -23.34375 C 12.335938 -25.414062 12.363281 -27.421875 12.46875 -29.359375 C 12.570312 -31.296875 12.734375 -33.117188 12.953125 -34.828125 C 13.179688 -36.546875 13.472656 -38.007812 13.828125 -39.21875 C 13.929688 -39.625 14.070312 -40.039062 14.25 -40.46875 C 14.425781 -40.894531 14.5625 -41.15625 14.65625 -41.25 C 15.257812 -41.851562 15.960938 -42.15625 16.765625 -42.15625 C 17.578125 -42.15625 18.410156 -42.132812 19.265625 -42.09375 C 20.023438 -42.09375 20.679688 -41.851562 21.234375 -41.375 C 21.785156 -40.894531 22.273438 -40.335938 22.703125 -39.703125 C 23.128906 -39.078125 23.484375 -38.398438 23.765625 -37.671875 C 24.046875 -36.941406 24.257812 -36.320312 24.40625 -35.8125 C 25.164062 -35.71875 25.820312 -35.644531 26.375 -35.59375 C 26.925781 -35.539062 27.46875 -35.515625 28 -35.515625 C 28.53125 -35.515625 29.054688 -35.523438 29.578125 -35.546875 C 30.109375 -35.578125 30.753906 -35.59375 31.515625 -35.59375 C 32.316406 -35.644531 32.894531 -35.671875 33.25 -35.671875 C 33.601562 -35.671875 33.828125 -35.742188 33.921875 -35.890625 L 34 -36.34375 C 34.351562 -39.414062 34.078125 -42.070312 33.171875 -44.3125 C 32.265625 -46.5625 30.90625 -48.363281 29.09375 -49.71875 C 27.28125 -51.082031 25.113281 -52.023438 22.59375 -52.546875 C 20.070312 -53.078125 17.425781 -53.164062 14.65625 -52.8125 C 13.300781 -52.613281 11.992188 -52.3125 10.734375 -51.90625 C 9.472656 -51.507812 8.335938 -50.878906 7.328125 -50.015625 C 5.867188 -49.015625 4.820312 -47.734375 4.1875 -46.171875 C 3.5625 -44.609375 3.125 -42.992188 2.875 -41.328125 C 2.625 -39.722656 2.445312 -38.078125 2.34375 -36.390625 C 2.238281 -34.703125 2.160156 -33.050781 2.109375 -31.4375 C 2.066406 -29.570312 2.054688 -27.921875 2.078125 -26.484375 C 2.097656 -25.046875 2.144531 -23.6875 2.21875 -22.40625 C 2.300781 -21.125 2.390625 -19.828125 2.484375 -18.515625 C 2.585938 -17.203125 2.71875 -15.738281 2.875 -14.125 C 2.96875 -13.125 3.101562 -12.128906 3.28125 -11.140625 C 3.457031 -10.160156 3.625 -9.394531 3.78125 -8.84375 C 4.382812 -6.675781 5.210938 -4.859375 6.265625 -3.390625 C 7.328125 -1.929688 8.863281 -0.773438 10.875 0.078125 C 12.082031 0.578125 13.351562 0.898438 14.6875 1.046875 C 16.03125 1.203125 17.40625 1.21875 18.8125 1.09375 C 20.226562 0.96875 21.613281 0.765625 22.96875 0.484375 C 24.332031 0.210938 25.644531 -0.0976562 26.90625 -0.453125 C 28.8125 -1.160156 30.421875 -2.191406 31.734375 -3.546875 C 33.046875 -4.910156 33.828125 -6.875 34.078125 -9.4375 C 34.578125 -12.164062 34.773438 -15.023438 34.671875 -18.015625 C 34.578125 -21.015625 34.378906 -23.847656 34.078125 -26.515625 L 34 -26.59375 L 33.859375 -26.59375 C 33.347656 -26.59375 32.375 -26.65625 30.9375 -26.78125 C 29.507812 -26.90625 27.960938 -26.992188 26.296875 -27.046875 C 24.628906 -27.097656 23.050781 -27.085938 21.5625 -27.015625 C 20.082031 -26.941406 19.015625 -26.703125 18.359375 -26.296875 Z M 18.359375 -26.296875 "/></g></g></g><g fill="#464655" fill-opacity="1"><g transform="translate(133.375344, 274.577623)"><g><path d="M 33.40625 -53.34375 C 32.644531 -53.394531 31.796875 -53.429688 30.859375 -53.453125 C 29.929688 -53.484375 28.988281 -53.457031 28.03125 -53.375 C 27.070312 -53.300781 26.148438 -53.1875 25.265625 -53.03125 C 24.390625 -52.882812 23.648438 -52.710938 23.046875 -52.515625 C 23.191406 -48.890625 23.253906 -45.566406 23.234375 -42.546875 C 23.210938 -39.523438 23.050781 -36.273438 22.75 -32.796875 L 22.671875 -32.796875 C 21.410156 -32.691406 20.046875 -32.578125 18.578125 -32.453125 C 17.117188 -32.328125 15.765625 -32.414062 14.515625 -32.71875 L 14.4375 -32.71875 C 13.832031 -35.9375 13.53125 -39.179688 13.53125 -42.453125 C 13.53125 -45.734375 13.300781 -49.113281 12.84375 -52.59375 C 12.132812 -52.789062 11.378906 -52.890625 10.578125 -52.890625 C 9.773438 -52.890625 8.957031 -52.863281 8.125 -52.8125 C 7.289062 -52.769531 6.457031 -52.722656 5.625 -52.671875 C 4.789062 -52.617188 4 -52.664062 3.25 -52.8125 L 3.015625 -52.8125 L 3.015625 -52.75 C 2.972656 -50.175781 2.9375 -47.289062 2.90625 -44.09375 C 2.882812 -40.894531 2.894531 -37.566406 2.9375 -34.109375 C 2.988281 -30.660156 3.050781 -27.222656 3.125 -23.796875 C 3.207031 -20.367188 3.296875 -17.128906 3.390625 -14.078125 C 3.492188 -11.035156 3.609375 -8.289062 3.734375 -5.84375 C 3.859375 -3.40625 3.972656 -1.484375 4.078125 -0.078125 C 4.535156 -0.328125 5.203125 -0.425781 6.078125 -0.375 C 6.960938 -0.320312 7.90625 -0.242188 8.90625 -0.140625 C 9.914062 -0.046875 10.925781 0 11.9375 0 C 12.945312 0 13.753906 -0.175781 14.359375 -0.53125 C 14.609375 -2.144531 14.742188 -3.769531 14.765625 -5.40625 C 14.796875 -7.039062 14.785156 -8.710938 14.734375 -10.421875 C 14.679688 -12.140625 14.640625 -13.851562 14.609375 -15.5625 C 14.585938 -17.28125 14.65625 -19.019531 14.8125 -20.78125 C 16.269531 -21.132812 17.726562 -21.3125 19.1875 -21.3125 C 20.65625 -21.3125 22.117188 -21.1875 23.578125 -20.9375 L 23.65625 -20.859375 C 23.851562 -19.242188 23.976562 -17.550781 24.03125 -15.78125 C 24.082031 -14.019531 24.117188 -12.257812 24.140625 -10.5 C 24.171875 -8.738281 24.222656 -6.960938 24.296875 -5.171875 C 24.367188 -3.390625 24.53125 -1.664062 24.78125 0 L 24.859375 0 C 25.460938 -0.0507812 26.203125 -0.078125 27.078125 -0.078125 C 27.960938 -0.078125 28.867188 -0.078125 29.796875 -0.078125 C 30.734375 -0.078125 31.691406 -0.101562 32.671875 -0.15625 C 33.660156 -0.207031 34.582031 -0.304688 35.4375 -0.453125 Z M 33.40625 -53.34375 "/></g></g></g><g fill="#464655" fill-opacity="1"><g transform="translate(171.08301, 274.577623)"><g><path d="M 32.640625 -52.515625 C 27.453125 -53.066406 22.125 -53.328125 16.65625 -53.296875 C 11.195312 -53.273438 5.894531 -53.242188 0.75 -53.203125 C 0.75 -53.148438 0.757812 -53.125 0.78125 -53.125 C 0.8125 -53.125 0.828125 -53.097656 0.828125 -53.046875 C 0.734375 -51.835938 0.6875 -50.578125 0.6875 -49.265625 C 0.6875 -47.953125 0.695312 -46.726562 0.71875 -45.59375 C 0.738281 -44.46875 0.785156 -43.5 0.859375 -42.6875 C 0.941406 -41.882812 1.035156 -41.382812 1.140625 -41.1875 C 1.441406 -41.082031 1.96875 -41.03125 2.71875 -41.03125 C 3.476562 -41.03125 4.3125 -41.015625 5.21875 -40.984375 C 6.125 -40.960938 7.03125 -40.914062 7.9375 -40.84375 C 8.84375 -40.769531 9.597656 -40.582031 10.203125 -40.28125 L 10.28125 -40.203125 C 10.582031 -33.148438 10.769531 -27.128906 10.84375 -22.140625 C 10.914062 -17.148438 10.9375 -13.054688 10.90625 -9.859375 C 10.882812 -6.660156 10.847656 -4.253906 10.796875 -2.640625 C 10.753906 -1.035156 10.757812 -0.128906 10.8125 0.078125 C 11.71875 -0.078125 12.695312 -0.15625 13.75 -0.15625 C 14.8125 -0.15625 15.882812 -0.15625 16.96875 -0.15625 C 18.050781 -0.15625 19.132812 -0.164062 20.21875 -0.1875 C 21.300781 -0.21875 22.296875 -0.304688 23.203125 -0.453125 L 23.203125 -0.609375 C 23.097656 -6.097656 23.019531 -10.867188 22.96875 -14.921875 C 22.914062 -18.972656 22.863281 -22.445312 22.8125 -25.34375 C 22.769531 -28.25 22.734375 -30.617188 22.703125 -32.453125 C 22.679688 -34.296875 22.671875 -35.78125 22.671875 -36.90625 C 22.671875 -38.039062 22.679688 -38.875 22.703125 -39.40625 C 22.734375 -39.9375 22.769531 -40.328125 22.8125 -40.578125 C 22.8125 -40.628906 22.820312 -40.664062 22.84375 -40.6875 C 22.875 -40.71875 22.890625 -40.753906 22.890625 -40.796875 L 23.125 -40.796875 C 25.488281 -40.898438 27.375 -40.976562 28.78125 -41.03125 C 30.195312 -41.082031 31.382812 -41.003906 32.34375 -40.796875 C 32.59375 -42.617188 32.726562 -44.609375 32.75 -46.765625 C 32.78125 -48.929688 32.742188 -50.847656 32.640625 -52.515625 Z M 32.640625 -52.515625 "/></g></g></g><g fill="#464655" fill-opacity="1"><g transform="translate(204.558949, 274.577623)"><g><path d="M 34.6875 -24.03125 C 34.9375 -28.863281 34.957031 -33.632812 34.75 -38.34375 C 34.550781 -43.050781 34.554688 -47.828125 34.765625 -52.671875 C 33.953125 -52.671875 32.976562 -52.65625 31.84375 -52.625 C 30.71875 -52.601562 29.613281 -52.566406 28.53125 -52.515625 C 27.445312 -52.460938 26.4375 -52.410156 25.5 -52.359375 C 24.570312 -52.316406 23.929688 -52.316406 23.578125 -52.359375 C 23.117188 -51.753906 22.648438 -50.796875 22.171875 -49.484375 C 21.691406 -48.179688 21.265625 -46.863281 20.890625 -45.53125 C 20.515625 -44.195312 20.160156 -43.023438 19.828125 -42.015625 C 19.503906 -41.003906 19.269531 -40.523438 19.125 -40.578125 C 18.96875 -40.578125 18.8125 -40.648438 18.65625 -40.796875 C 18.257812 -41.398438 17.867188 -42.234375 17.484375 -43.296875 C 17.109375 -44.359375 16.71875 -45.46875 16.3125 -46.625 C 15.914062 -47.78125 15.488281 -48.875 15.03125 -49.90625 C 14.582031 -50.9375 14.128906 -51.707031 13.671875 -52.21875 L 13.59375 -52.21875 C 12.738281 -52.164062 11.859375 -52.148438 10.953125 -52.171875 C 10.046875 -52.203125 9.140625 -52.226562 8.234375 -52.25 C 7.328125 -52.28125 6.445312 -52.269531 5.59375 -52.21875 C 4.738281 -52.164062 3.984375 -52.035156 3.328125 -51.828125 C 3.273438 -44.984375 3.234375 -38.988281 3.203125 -33.84375 C 3.179688 -28.707031 3.15625 -24.273438 3.125 -20.546875 C 3.101562 -16.828125 3.09375 -13.707031 3.09375 -11.1875 C 3.09375 -8.664062 3.101562 -6.632812 3.125 -5.09375 C 3.15625 -3.5625 3.195312 -2.414062 3.25 -1.65625 C 3.300781 -0.90625 3.351562 -0.429688 3.40625 -0.234375 C 3.445312 -0.078125 3.519531 0 3.625 0 C 5.238281 0 7 0.0234375 8.90625 0.078125 C 10.820312 0.128906 12.585938 0.0234375 14.203125 -0.234375 C 13.898438 -4.910156 13.6875 -9.664062 13.5625 -14.5 C 13.4375 -19.34375 13.578125 -24.128906 13.984375 -28.859375 C 13.984375 -28.859375 14.070312 -28.609375 14.25 -28.109375 C 14.425781 -27.609375 14.640625 -26.976562 14.890625 -26.21875 C 15.140625 -25.46875 15.441406 -24.632812 15.796875 -23.71875 C 16.148438 -22.8125 16.488281 -21.957031 16.8125 -21.15625 C 17.132812 -20.351562 17.457031 -19.6875 17.78125 -19.15625 C 18.113281 -18.625 18.40625 -18.359375 18.65625 -18.359375 C 18.863281 -18.359375 19.164062 -18.835938 19.5625 -19.796875 C 19.96875 -20.753906 20.394531 -21.863281 20.84375 -23.125 C 21.300781 -24.382812 21.753906 -25.601562 22.203125 -26.78125 C 22.660156 -27.96875 23.066406 -28.835938 23.421875 -29.390625 C 23.671875 -27.273438 23.859375 -24.957031 23.984375 -22.4375 C 24.117188 -19.914062 24.195312 -17.347656 24.21875 -14.734375 C 24.238281 -12.117188 24.257812 -9.550781 24.28125 -7.03125 C 24.3125 -4.507812 24.378906 -2.164062 24.484375 0 C 25.085938 0 25.800781 -0.0078125 26.625 -0.03125 C 27.457031 -0.0625 28.328125 -0.078125 29.234375 -0.078125 C 30.148438 -0.078125 31.0625 -0.078125 31.96875 -0.078125 C 32.875 -0.078125 33.703125 -0.0234375 34.453125 0.078125 Z M 34.6875 -24.03125 "/></g></g></g><g fill="#464655" fill-opacity="1"><g transform="translate(242.417752, 274.577623)"><g><path d="M 14.96875 -53.125 C 12.695312 -53.070312 10.96875 -53.082031 9.78125 -53.15625 C 8.601562 -53.226562 7.5625 -53.289062 6.65625 -53.34375 C 6.300781 -53.34375 5.753906 -53.378906 5.015625 -53.453125 C 4.285156 -53.535156 3.796875 -53.550781 3.546875 -53.5 L 3.546875 -53.34375 C 3.097656 -49.113281 2.882812 -44.796875 2.90625 -40.390625 C 2.9375 -35.984375 3.015625 -31.523438 3.140625 -27.015625 C 3.265625 -22.503906 3.347656 -17.957031 3.390625 -13.375 C 3.441406 -8.789062 3.296875 -4.234375 2.953125 0.296875 C 3.453125 0.148438 4.378906 0.113281 5.734375 0.1875 C 7.097656 0.257812 8.519531 0.320312 10 0.375 C 11.488281 0.425781 12.875 0.414062 14.15625 0.34375 C 15.445312 0.269531 16.296875 0.03125 16.703125 -0.375 C 16.453125 -4.65625 16.300781 -8.988281 16.25 -13.375 C 16.195312 -17.757812 16.207031 -22.15625 16.28125 -26.5625 C 16.351562 -30.96875 16.453125 -35.359375 16.578125 -39.734375 C 16.710938 -44.117188 16.78125 -48.476562 16.78125 -52.8125 L 16.78125 -53.125 Z M 14.96875 -53.125 "/></g></g></g><g fill="#464655" fill-opacity="1"><g transform="translate(262.065044, 274.577623)"><g><path d="M 32.03125 0.375 C 32.894531 0.375 33.5 0.320312 33.84375 0.21875 C 34.195312 0.125 34.425781 0.0507812 34.53125 0 L 34.53125 -1.515625 C 34.53125 -2.515625 34.515625 -3.519531 34.484375 -4.53125 C 34.460938 -5.539062 34.453125 -6.550781 34.453125 -7.5625 C 34.453125 -8.96875 34.460938 -10.347656 34.484375 -11.703125 C 34.515625 -13.066406 34.53125 -14.476562 34.53125 -15.9375 C 34.53125 -18.101562 34.53125 -20.269531 34.53125 -22.4375 C 34.53125 -24.601562 34.503906 -26.742188 34.453125 -28.859375 L 34.453125 -53.203125 C 32.992188 -53.503906 31.332031 -53.65625 29.46875 -53.65625 C 27.550781 -53.65625 25.738281 -53.503906 24.03125 -53.203125 C 23.976562 -51.941406 23.9375 -50.769531 23.90625 -49.6875 C 23.882812 -48.601562 23.875 -47.53125 23.875 -46.46875 C 23.875 -44.65625 23.910156 -42.878906 23.984375 -41.140625 C 24.066406 -39.398438 24.109375 -37.523438 24.109375 -35.515625 C 24.109375 -34.660156 24.054688 -33.78125 23.953125 -32.875 C 23.847656 -31.96875 23.722656 -31.460938 23.578125 -31.359375 C 23.523438 -31.359375 23.347656 -31.644531 23.046875 -32.21875 C 22.742188 -32.800781 22.378906 -33.507812 21.953125 -34.34375 C 21.523438 -35.175781 21.054688 -36.109375 20.546875 -37.140625 C 20.046875 -38.171875 19.566406 -39.148438 19.109375 -40.078125 C 18.660156 -41.015625 18.257812 -41.832031 17.90625 -42.53125 C 17.550781 -43.238281 17.328125 -43.722656 17.234375 -43.984375 C 16.773438 -45.035156 16.378906 -45.898438 16.046875 -46.578125 C 15.722656 -47.265625 15.421875 -47.882812 15.140625 -48.4375 C 14.867188 -48.988281 14.582031 -49.566406 14.28125 -50.171875 C 13.976562 -50.773438 13.648438 -51.53125 13.296875 -52.4375 C 13.296875 -52.539062 13.03125 -52.640625 12.5 -52.734375 C 11.976562 -52.835938 11.363281 -52.925781 10.65625 -53 C 9.945312 -53.082031 9.238281 -53.132812 8.53125 -53.15625 C 7.832031 -53.1875 7.332031 -53.203125 7.03125 -53.203125 C 6.425781 -53.203125 5.832031 -53.175781 5.25 -53.125 C 4.664062 -53.070312 4.125 -52.992188 3.625 -52.890625 C 3.375 -49.671875 3.195312 -46.359375 3.09375 -42.953125 C 3 -39.554688 2.953125 -36.117188 2.953125 -32.640625 C 2.953125 -27.910156 2.988281 -23.378906 3.0625 -19.046875 C 3.132812 -14.710938 3.171875 -10.148438 3.171875 -5.359375 L 3.171875 -0.078125 C 4.328125 -0.078125 5.519531 -0.00390625 6.75 0.140625 C 7.988281 0.296875 9.210938 0.375 10.421875 0.375 C 10.984375 0.375 11.539062 0.347656 12.09375 0.296875 C 12.644531 0.253906 13.195312 0.15625 13.75 0 C 13.695312 -0.851562 13.671875 -1.820312 13.671875 -2.90625 C 13.671875 -3.988281 13.671875 -5.109375 13.671875 -6.265625 C 13.671875 -8.378906 13.679688 -10.570312 13.703125 -12.84375 C 13.734375 -15.113281 13.773438 -17.179688 13.828125 -19.046875 C 13.878906 -20.910156 13.941406 -22.445312 14.015625 -23.65625 C 14.085938 -24.863281 14.148438 -25.46875 14.203125 -25.46875 C 14.304688 -25.46875 14.445312 -25.226562 14.625 -24.75 C 14.800781 -24.269531 14.988281 -23.753906 15.1875 -23.203125 L 15.9375 -20.9375 C 17.101562 -17.707031 18.503906 -14.34375 20.140625 -10.84375 C 21.773438 -7.34375 23.425781 -3.726562 25.09375 0 C 26.09375 0 27.25 0.0625 28.5625 0.1875 C 29.875 0.3125 31.03125 0.375 32.03125 0.375 Z M 32.03125 0.375 "/></g></g></g><g fill="#464655" fill-opacity="1"><g transform="translate(299.697142, 274.577623)"><g><path d="M 29.703125 -46.625 C 28.785156 -48.082031 27.582031 -49.398438 26.09375 -50.578125 C 24.613281 -51.765625 23.066406 -52.5625 21.453125 -52.96875 C 19.992188 -52.914062 18.492188 -52.914062 16.953125 -52.96875 C 15.421875 -53.019531 13.875 -53.054688 12.3125 -53.078125 C 10.75 -53.109375 9.195312 -53.0625 7.65625 -52.9375 C 6.125 -52.8125 4.65625 -52.570312 3.25 -52.21875 C 3.195312 -52.164062 3.15625 -52.113281 3.125 -52.0625 C 3.101562 -52.007812 3.066406 -51.957031 3.015625 -51.90625 C 3.117188 -47.53125 3.132812 -43.113281 3.0625 -38.65625 C 2.988281 -34.195312 2.953125 -29.773438 2.953125 -25.390625 C 2.953125 -21.003906 3.023438 -16.679688 3.171875 -12.421875 C 3.328125 -8.171875 3.679688 -4.054688 4.234375 -0.078125 C 4.285156 -0.128906 4.3125 -0.15625 4.3125 -0.15625 C 7.476562 -0.15625 10.75 -0.164062 14.125 -0.1875 C 17.5 -0.21875 20.851562 -0.28125 24.1875 -0.375 C 26.09375 -2.738281 27.914062 -5.253906 29.65625 -7.921875 C 31.394531 -10.597656 32.769531 -13.421875 33.78125 -16.390625 C 33.78125 -16.441406 33.789062 -16.46875 33.8125 -16.46875 C 33.84375 -16.46875 33.859375 -16.492188 33.859375 -16.546875 C 34.304688 -18.867188 34.566406 -21.222656 34.640625 -23.609375 C 34.722656 -26.003906 34.8125 -28.382812 34.90625 -30.75 C 34.851562 -31.5625 34.789062 -32.359375 34.71875 -33.140625 C 34.644531 -33.921875 34.484375 -34.710938 34.234375 -35.515625 C 33.773438 -37.523438 33.179688 -39.445312 32.453125 -41.28125 C 31.722656 -43.125 30.804688 -44.90625 29.703125 -46.625 Z M 22.75 -19.1875 C 22.445312 -18.738281 22.101562 -18.300781 21.71875 -17.875 C 21.34375 -17.445312 20.90625 -17.082031 20.40625 -16.78125 C 20.15625 -16.675781 19.925781 -16.5625 19.71875 -16.4375 C 19.519531 -16.3125 19.296875 -16.273438 19.046875 -16.328125 C 18.140625 -16.222656 17.191406 -16.144531 16.203125 -16.09375 C 15.222656 -16.039062 14.457031 -16.269531 13.90625 -16.78125 C 13.800781 -18.488281 13.75 -20.210938 13.75 -21.953125 C 13.75 -23.691406 13.773438 -25.40625 13.828125 -27.09375 C 13.878906 -28.78125 13.90625 -30.40625 13.90625 -31.96875 C 13.90625 -33.53125 13.851562 -34.988281 13.75 -36.34375 L 13.75 -36.640625 L 13.984375 -36.640625 C 14.890625 -36.847656 15.84375 -36.9375 16.84375 -36.90625 C 17.851562 -36.882812 18.785156 -36.820312 19.640625 -36.71875 C 20.503906 -36.414062 21.210938 -35.972656 21.765625 -35.390625 C 22.316406 -34.816406 22.78125 -34.148438 23.15625 -33.390625 C 23.539062 -32.640625 23.832031 -31.847656 24.03125 -31.015625 C 24.226562 -30.179688 24.40625 -29.390625 24.5625 -28.640625 C 24.957031 -26.773438 24.96875 -25.0625 24.59375 -23.5 C 24.21875 -21.9375 23.601562 -20.5 22.75 -19.1875 Z M 22.75 -19.1875 "/></g></g></g><g fill="#464655" fill-opacity="1"><g transform="translate(336.120188, 274.577623)"><g><path d="M 34.984375 -35.8125 C 35.691406 -39.59375 35.390625 -42.71875 34.078125 -45.1875 C 32.765625 -47.65625 30.898438 -49.519531 28.484375 -50.78125 C 27.273438 -51.332031 25.953125 -51.785156 24.515625 -52.140625 C 23.078125 -52.492188 21.613281 -52.707031 20.125 -52.78125 C 18.644531 -52.851562 17.175781 -52.800781 15.71875 -52.625 C 14.257812 -52.445312 12.925781 -52.109375 11.71875 -51.609375 C 9.289062 -50.597656 7.234375 -49.0625 5.546875 -47 C 3.859375 -44.9375 2.710938 -42.644531 2.109375 -40.125 C 1.503906 -37.601562 1.539062 -35.003906 2.21875 -32.328125 C 2.90625 -29.660156 4.40625 -27.222656 6.71875 -25.015625 C 7.425781 -24.410156 8.207031 -23.878906 9.0625 -23.421875 C 9.925781 -22.972656 10.859375 -22.644531 11.859375 -22.4375 C 12.921875 -22.238281 14.054688 -22.023438 15.265625 -21.796875 C 16.472656 -21.566406 17.59375 -21.222656 18.625 -20.765625 C 19.65625 -20.316406 20.546875 -19.726562 21.296875 -19 C 22.054688 -18.269531 22.515625 -17.300781 22.671875 -16.09375 C 22.972656 -14.332031 22.628906 -13.019531 21.640625 -12.15625 C 20.660156 -11.300781 19.503906 -10.863281 18.171875 -10.84375 C 16.835938 -10.820312 15.578125 -11.210938 14.390625 -12.015625 C 13.210938 -12.816406 12.570312 -14.023438 12.46875 -15.640625 C 10.757812 -15.585938 8.84375 -15.625 6.71875 -15.75 C 4.601562 -15.875 2.664062 -15.8125 0.90625 -15.5625 L 0.90625 -15.109375 C 0.757812 -12.691406 1.1875 -10.535156 2.1875 -8.640625 C 3.195312 -6.753906 4.554688 -5.15625 6.265625 -3.84375 C 7.984375 -2.539062 9.9375 -1.523438 12.125 -0.796875 C 14.320312 -0.0664062 16.523438 0.320312 18.734375 0.375 C 20.296875 0.425781 21.820312 0.289062 23.3125 -0.03125 C 24.800781 -0.363281 26.1875 -0.878906 27.46875 -1.578125 C 28.75 -2.285156 29.894531 -3.191406 30.90625 -4.296875 C 31.914062 -5.410156 32.722656 -6.75 33.328125 -8.3125 C 33.929688 -9.625 34.367188 -10.992188 34.640625 -12.421875 C 34.921875 -13.859375 35.019531 -15.28125 34.9375 -16.6875 C 34.863281 -18.101562 34.597656 -19.476562 34.140625 -20.8125 C 33.691406 -22.144531 33.015625 -23.394531 32.109375 -24.5625 C 30.648438 -26.726562 28.773438 -28.515625 26.484375 -29.921875 C 24.191406 -31.328125 21.710938 -32.179688 19.046875 -32.484375 C 17.984375 -32.640625 17 -32.914062 16.09375 -33.3125 C 15.1875 -33.71875 14.53125 -34.523438 14.125 -35.734375 C 14.070312 -36.085938 14.035156 -36.425781 14.015625 -36.75 C 13.992188 -37.082031 14.03125 -37.425781 14.125 -37.78125 C 14.332031 -39.1875 15 -40.140625 16.125 -40.640625 C 17.257812 -41.148438 18.429688 -41.28125 19.640625 -41.03125 C 20.847656 -40.78125 21.878906 -40.203125 22.734375 -39.296875 C 23.597656 -38.390625 23.878906 -37.253906 23.578125 -35.890625 C 25.335938 -35.390625 27.222656 -35.175781 29.234375 -35.25 C 31.253906 -35.320312 33.144531 -35.507812 34.90625 -35.8125 Z M 34.984375 -35.8125 "/></g></g></g></svg>